<svg viewBox="0 0 96 96" xmlns="http://www.w3.org/2000/svg">
  <defs>
    <linearGradient id="grad_stop_rec_dark" x1="0" y1="0" x2="0" y2="1">
      <stop offset="0" stop-color="#173a52"/>
      <stop offset="1" stop-color="#0d2233"/>
    </linearGradient>
  </defs>
  <circle cx="48" cy="48" r="45" fill="url(#grad_stop_rec_dark)" stroke="#2c5c7d" stroke-width="2"/>
  <g transform="translate(48,32)">
    <circle cx="0" cy="0" r="20" fill="none" stroke="rgba(127,179,213,0.5)" stroke-width="1.3"/>
    <polyline points="-3,-20 0,-24 3,-20" fill="none" stroke="rgba(127,179,213,0.5)" stroke-width="1.3"/>
    <line x1="-7" y1="-16" x2="7" y2="-16" stroke="rgba(230,237,243,0.65)" stroke-width="1.2"/><line x1="-7" y1="-16" x2="-17" y2="-6" stroke="rgba(230,237,243,0.65)" stroke-width="1.2"/><line x1="7" y1="-16" x2="17" y2="-6" stroke="rgba(230,237,243,0.65)" stroke-width="1.2"/><line x1="-17" y1="-6" x2="-12" y2="5" stroke="rgba(230,237,243,0.65)" stroke-width="1.2"/><line x1="17" y1="-6" x2="12" y2="5" stroke="rgba(230,237,243,0.65)" stroke-width="1.2"/><line x1="-12" y1="5" x2="12" y2="5" stroke="rgba(230,237,243,0.65)" stroke-width="1.2"/><line x1="-12" y1="5" x2="-8" y2="15" stroke="rgba(230,237,243,0.65)" stroke-width="1.2"/><line x1="12" y1="5" x2="8" y2="15" stroke="rgba(230,237,243,0.65)" stroke-width="1.2"/><line x1="-8" y1="15" x2="8" y2="15" stroke="rgba(230,237,243,0.65)" stroke-width="1.2"/><line x1="-17" y1="-6" x2="-8" y2="15" stroke="rgba(230,237,243,0.65)" stroke-width="1.2"/><line x1="17" y1="-6" x2="8" y2="15" stroke="rgba(230,237,243,0.65)" stroke-width="1.2"/><line x1="-7" y1="-16" x2="-12" y2="5" stroke="rgba(230,237,243,0.65)" stroke-width="1.2"/><line x1="7" y1="-16" x2="12" y2="5" stroke="rgba(230,237,243,0.65)" stroke-width="1.2"/>
    <circle cx="-7" cy="-16" r="2.6" fill="#050708" stroke="#e6edf3" stroke-width="1"/><circle cx="7" cy="-16" r="2.6" fill="#050708" stroke="#e6edf3" stroke-width="1"/><circle cx="-17" cy="-6" r="2.6" fill="#050708" stroke="#e6edf3" stroke-width="1"/><circle cx="17" cy="-6" r="2.6" fill="#050708" stroke="#e6edf3" stroke-width="1"/><circle cx="-12" cy="5" r="2.6" fill="#050708" stroke="#e6edf3" stroke-width="1"/><circle cx="12" cy="5" r="2.6" fill="#050708" stroke="#e6edf3" stroke-width="1"/><circle cx="-8" cy="15" r="2.6" fill="#050708" stroke="#e6edf3" stroke-width="1"/><circle cx="8" cy="15" r="2.6" fill="#050708" stroke="#e6edf3" stroke-width="1"/>
  </g>
  <g transform="translate(14,66)">
    <polyline points="0,0 4,0 8,-4 11,6 14,-10 17,8 20,-3 24,2 28,-8 31,9 34,-4 38,3 42,0 46,-6 50,5 54,0 58,0 62,0 68,0" fill="none" stroke="#4fd1c5" stroke-width="2.6" stroke-linejoin="round" stroke-linecap="round"/>
  </g>
  <circle cx="74" cy="74" r="17" fill="#0d1524" stroke="#e0a63e" stroke-width="2"/>
  <g transform="translate(74,74)">
    <rect x="-6" y="-6" width="12" height="12" fill="#e0a63e"/>
  </g>
</svg>